<svg version="1.1" id="Layer_1" xmlns="http://www.w3.org/2000/svg" xmlns:xlink="http://www.w3.org/1999/xlink" x="0px" y="0px"
	 width="100%" viewBox="0 0 500 500" enable-background="new 0 0 500 500" xml:space="preserve">
<path fill="#000000" opacity="1.000000" stroke="none" 
	d="
M248.000000,501.000000 
	C165.333359,501.000000 83.166702,501.000000 1.000044,501.000000 
	C1.000029,334.333405 1.000029,167.666779 1.000015,1.000134 
	C167.666565,1.000089 334.333130,1.000089 500.999756,1.000045 
	C500.999847,167.666519 500.999847,334.333038 500.999939,500.999786 
	C416.833344,501.000000 332.666656,501.000000 248.000000,501.000000 
M132.975235,208.024078 
	C132.975235,208.024078 133.075165,208.023453 132.872437,207.514954 
	C132.573349,207.319077 132.274246,207.123199 131.971542,207.023972 
	C131.971542,207.023972 132.068192,207.027618 131.858917,206.540726 
	C131.579941,206.333374 131.300964,206.126022 130.780334,205.373947 
	C129.906479,204.578888 129.032623,203.783829 127.903168,202.499878 
	C127.595184,202.314331 127.287209,202.128799 127.008430,202.004425 
	C127.008430,202.004425 127.066849,201.970047 126.732803,201.311401 
	C125.159897,200.910858 123.586983,200.510315 121.272224,199.986526 
	C120.523453,200.024216 119.774689,200.061890 118.322311,200.030411 
	C117.204590,200.695984 116.086876,201.361542 114.365906,202.304733 
	C102.969337,213.643600 91.524849,224.935257 80.244705,236.388779 
	C79.014038,237.638367 78.228447,239.784775 78.100731,241.576813 
	C77.705650,247.120560 83.486351,254.879471 88.915710,257.085724 
	C94.247688,259.252350 98.271576,257.097107 101.879089,253.553131 
	C108.050621,247.490295 114.104156,241.307373 121.397644,233.978745 
	C127.460213,240.549820 133.033981,247.118179 139.249054,253.010040 
	C141.142731,254.805222 145.348526,256.097778 147.532379,255.221222 
	C151.321106,253.700500 154.592850,250.556137 157.659302,247.647629 
	C162.656876,242.907440 162.911041,237.854553 158.280136,233.044464 
	C151.365082,225.861816 144.134354,218.983078 136.824707,211.511932 
	C136.550552,211.318497 136.276398,211.125061 135.987350,211.012009 
	C135.987350,211.012009 136.067703,211.026947 135.860443,210.525116 
	C135.574097,210.313004 135.287735,210.100876 134.840561,209.484177 
	C134.670120,209.230576 134.436554,209.067322 133.906158,208.488297 
	C133.595627,208.300247 133.285095,208.112198 132.975235,208.024078 
M81.503799,185.121033 
	C81.310806,185.415955 81.117813,185.710892 81.007347,186.007751 
	C81.007347,186.007751 81.009315,185.925217 80.523079,186.141159 
	C80.319336,186.424286 80.115585,186.707413 79.507416,187.179581 
	C79.255943,187.357819 79.078209,187.592010 78.473885,188.101257 
	C78.261444,188.391037 78.048996,188.680801 77.442703,189.160767 
	C77.195747,189.342743 77.041496,189.583984 76.497177,190.121490 
	C76.285744,190.405716 76.074310,190.689926 75.288567,191.308624 
	C70.203377,196.700424 65.378853,202.370956 59.976418,207.423569 
	C50.038055,216.718399 49.974785,220.901382 60.435722,229.818741 
	C60.688705,230.034378 60.915665,230.282715 61.179764,230.482803 
	C67.715614,235.434601 71.138107,235.097534 77.003891,229.150558 
	C85.045662,220.997467 93.153641,212.909592 101.243301,204.803818 
	C116.098145,189.919418 130.977158,175.059082 145.807266,160.150116 
	C149.369583,156.568848 150.126572,151.402924 147.146484,147.979538 
	C144.460602,144.894104 141.419189,141.857834 137.944473,139.792847 
	C134.497314,137.744263 130.309570,136.223465 126.586998,139.994339 
	C118.061783,148.630219 109.516350,157.246124 100.489952,166.104523 
	C100.303551,166.405975 100.117149,166.707413 100.006622,167.007248 
	C100.006622,167.007248 100.005028,166.931366 99.524948,167.151489 
	C99.327843,167.436554 99.130737,167.721634 99.005898,168.007843 
	C99.005898,168.007843 99.007080,167.935577 98.507965,168.137115 
	C98.296127,168.420242 98.084282,168.703354 97.313843,169.282990 
	C95.864067,170.804108 94.414299,172.325211 92.490158,174.108414 
	C92.302338,174.410172 92.114525,174.711929 92.011345,175.012482 
	C92.011345,175.012482 92.010178,174.927856 91.511856,175.135468 
	C91.298889,175.419174 91.085922,175.702881 90.380432,176.224854 
	C89.915268,176.776566 89.450104,177.328293 88.509102,178.126755 
	C88.316872,178.421234 88.124634,178.715729 88.009995,179.010406 
	C88.009995,179.010406 88.010223,178.932816 87.513786,179.147324 
	C87.290199,179.425262 87.066620,179.703201 86.443825,180.142624 
	C86.193596,180.314301 86.037949,180.548767 85.501152,181.112045 
	C85.291000,181.403229 85.080841,181.694412 84.464607,182.160721 
	C84.211105,182.338867 84.048676,182.578690 83.516289,183.140640 
	C83.322708,183.430420 83.129120,183.720200 83.005951,184.005539 
	C83.005951,184.005539 83.001289,183.935150 82.501381,184.130112 
	C82.307236,184.422226 82.113083,184.714355 82.005394,185.005432 
	C82.005394,185.005432 82.004364,184.918976 81.503799,185.121033 
M184.854477,210.529800 
	C184.569931,210.334869 184.285370,210.139923 183.693771,209.358826 
	C173.107986,199.044266 162.434143,188.817841 151.980484,178.371094 
	C147.892578,174.285889 143.895752,173.509552 139.503326,177.149918 
	C137.393356,178.898590 135.696198,181.154541 133.862061,183.225021 
	C128.999344,188.714340 128.782562,194.013031 133.586182,198.839859 
	C147.196716,212.516113 160.902237,226.098175 174.620270,239.666870 
	C178.164719,243.172714 184.781311,244.910004 187.698715,242.364136 
	C191.493805,239.052368 194.463791,234.795074 197.927475,230.119522 
	C197.622696,228.016647 197.317932,225.913773 196.976273,223.204300 
	C196.357773,222.460693 195.739273,221.717087 194.881363,220.494095 
	C194.583160,220.309692 194.284958,220.125305 193.985321,220.012024 
	C193.985321,220.012024 194.056427,220.013489 193.866013,219.503830 
	C193.582581,219.285309 193.299164,219.066788 192.849548,218.447906 
	C192.675140,218.196564 192.437622,218.042465 191.877670,217.507614 
	C191.577316,217.314880 191.276962,217.122147 190.980728,217.020721 
	C190.980728,217.020721 191.072052,217.016632 190.856995,216.523270 
	C190.565308,216.325195 190.273636,216.127121 189.982941,216.016861 
	C189.982941,216.016861 190.070770,216.015915 189.853699,215.525253 
	C189.563309,215.326920 189.272919,215.128586 188.983505,215.016190 
	C188.983505,215.016190 189.069427,215.015259 188.849976,214.527802 
	C188.561005,214.329376 188.272018,214.130966 187.984100,214.015518 
	C187.984100,214.015518 188.067047,214.014511 187.847351,213.528946 
	C187.559418,213.330780 187.271469,213.132614 186.984192,213.015610 
	C186.984192,213.015610 187.065353,213.014984 186.846542,212.531250 
	C186.559204,212.334900 186.271851,212.138550 185.984940,212.015289 
	C185.984940,212.015289 186.058014,212.014938 185.830933,211.538071 
	C185.548050,211.336411 185.265167,211.134750 184.982391,211.014236 
	C184.982391,211.014236 185.063538,211.014191 184.854477,210.529800 
M296.989655,220.993881 
	C296.989655,220.993881 297.009247,221.052750 297.617157,220.471924 
	C297.406219,216.587173 297.195282,212.702438 296.947418,208.424911 
	C296.947418,208.424911 296.823944,208.050247 296.779510,207.542679 
	C296.516876,207.341934 296.254272,207.141190 296.001373,207.001328 
	C296.001373,207.001328 296.056183,206.973175 295.516968,206.306229 
	C291.033691,206.246964 286.550385,206.187698 281.405731,205.765060 
	C281.179352,202.714508 280.952972,199.663956 280.680023,195.985657 
	C285.524261,195.985657 289.466400,195.985886 293.408569,195.985611 
	C301.882172,195.985046 303.688629,194.077667 302.892151,185.489120 
	C302.719086,183.622971 301.751648,181.830490 300.567932,179.347977 
	C290.059570,179.273529 279.551239,179.199066 268.248352,179.011002 
	C264.137573,178.687805 263.175720,181.471619 263.078461,184.640106 
	C262.942047,189.082321 263.151886,193.535187 263.079681,198.919708 
	C263.111908,213.948090 263.144104,228.976471 263.119537,244.776672 
	C263.352753,248.691727 265.380707,250.142914 269.314636,250.033875 
	C277.307312,249.812378 285.310364,249.962677 293.309143,249.962433 
	C301.974670,249.962173 303.610504,248.267563 302.860596,239.539154 
	C302.698975,237.657654 301.746277,235.844147 300.566895,233.352768 
	C294.226105,233.352768 287.885315,233.352768 281.036072,233.352768 
	C281.036072,229.248367 281.036072,226.165405 281.955505,222.982849 
	C286.284088,222.925171 290.612671,222.867493 295.606567,222.886215 
	C296.088257,222.254898 296.569977,221.623581 296.989655,220.993881 
M222.077240,183.865936 
	C222.059479,203.716064 222.020218,223.566238 222.065842,243.416229 
	C222.069397,244.961334 222.667542,246.505066 223.174088,248.856628 
	C226.844498,249.233337 230.522629,249.548080 234.183289,250.003189 
	C238.287247,250.513428 239.796814,248.767761 239.680130,244.693848 
	C239.477875,237.632782 239.623962,230.561737 239.623962,223.714691 
	C241.016846,223.325928 241.489578,223.090363 241.968155,223.077805 
	C244.466095,223.012238 246.965454,222.990265 249.464447,222.977310 
	C255.620514,222.945404 256.619415,222.017334 256.806335,215.756454 
	C256.860413,213.944489 256.652924,212.113663 256.435699,210.307068 
	C256.059967,207.182129 254.454590,205.683685 251.086807,205.915466 
	C247.520508,206.160873 243.924255,205.970551 240.470825,205.970551 
	C240.470825,202.164993 240.470825,199.271774 240.470825,195.997406 
	C243.411865,195.997406 245.893005,196.001511 248.374115,195.996277 
	C251.040604,195.990646 253.730087,196.181274 256.364532,195.885468 
	C257.843597,195.719406 260.455688,194.761581 260.465393,194.128372 
	C260.537445,189.434998 260.083832,184.733551 259.306854,179.361572 
	C248.323135,179.248627 237.336807,178.994247 226.358948,179.197357 
	C224.947617,179.223450 223.580215,181.624512 222.077240,183.865936 
M453.931274,181.270203 
	C452.606445,180.560196 451.281586,179.850189 449.219330,179.053085 
	C448.479340,179.081741 447.739319,179.110397 446.215057,179.023972 
	C445.164154,179.069870 444.113220,179.115768 442.262451,179.060867 
	C438.394653,178.872375 436.855316,180.865311 437.023438,184.558792 
	C437.136780,187.049164 437.141144,189.544479 437.074707,192.963577 
	C437.082092,204.303207 437.089508,215.642853 437.002563,227.659561 
	C437.049377,228.112091 437.096222,228.564606 437.019684,229.751282 
	C437.053925,230.492691 437.088196,231.234085 437.020844,232.909027 
	C437.025085,237.186920 436.946747,241.467514 437.086060,245.741013 
	C437.125549,246.952682 437.462463,248.477600 438.252289,249.275681 
	C439.979889,251.021439 451.750702,249.878494 454.658752,247.422958 
	C454.760284,226.322220 454.871368,205.221497 454.922943,184.120636 
	C454.924713,183.397858 454.330109,182.673630 453.998566,182.003998 
	C453.998566,182.003998 454.051544,181.986008 453.931274,181.270203 
M321.636627,248.481369 
	C321.709625,235.005463 321.782623,221.529572 321.973450,207.121033 
	C321.930359,202.413986 321.887238,197.706955 321.953766,192.089432 
	C321.637634,188.343323 321.321503,184.597229 320.593933,180.177383 
	C315.967896,179.844498 311.344147,179.417053 306.712769,179.304657 
	C306.165710,179.291367 305.576721,181.005493 304.364716,182.498596 
	C304.309509,202.663544 304.254303,222.828491 304.100677,243.790756 
	C305.163940,245.826797 306.062347,249.479553 307.320160,249.607819 
	C311.807037,250.065308 316.415955,249.325287 321.636627,248.481369 
M416.086151,179.047516 
	C413.736267,179.071060 411.386414,179.094604 408.283264,179.009094 
	C407.524384,179.035645 406.765503,179.062195 405.342468,179.040894 
	C404.307526,180.048218 403.272583,181.055542 401.811493,182.717529 
	C397.244720,203.415482 392.632080,224.103668 388.222870,244.835144 
	C387.952271,246.107483 389.134094,248.881882 389.904236,248.984985 
	C394.268311,249.569290 398.875854,250.296997 403.051941,249.383026 
	C404.786987,249.003311 406.314148,244.789581 406.753815,242.124359 
	C407.273376,238.974686 407.476654,236.821381 411.522858,236.860077 
	C415.259705,236.895813 416.684662,238.109619 417.147400,241.928619 
	C418.081360,249.637100 418.777222,249.969009 426.577148,249.977341 
	C427.741516,249.978592 428.906342,249.994049 430.070129,249.966705 
	C435.306793,249.843735 436.547394,248.219421 435.455292,243.150604 
	C432.885895,231.224945 430.436615,219.272919 427.795624,207.363312 
	C425.911652,198.867554 423.795074,190.423355 421.743927,181.499207 
	C421.577850,181.222229 421.338623,181.042847 420.805573,180.529343 
	C420.604675,180.260620 420.343872,180.076904 419.722198,179.475998 
	C419.166168,179.373718 418.610168,179.271454 417.505707,179.108429 
	C417.323212,179.131165 417.140686,179.153915 416.086151,179.047516 
M324.358673,182.503265 
	C324.325592,202.655777 324.292542,222.808273 324.134247,243.759094 
	C325.173218,245.793777 326.080811,249.476608 327.274445,249.571793 
	C331.920380,249.942230 336.667786,249.259186 341.339264,248.666962 
	C341.707245,248.620300 341.939148,246.262329 341.963715,244.973404 
	C342.042023,240.857788 341.992706,236.739731 341.992706,232.622604 
	C344.238892,236.179153 345.723877,239.917526 347.072937,243.704285 
	C349.420868,250.294952 359.254639,252.682953 365.608826,247.435257 
	C365.725037,226.153412 365.848206,204.871597 365.918365,183.589600 
	C365.920197,183.041412 365.341064,182.491287 364.831757,181.146591 
	C361.338715,180.749252 357.835327,180.425598 354.355011,179.937607 
	C348.907623,179.173798 348.034302,179.847824 347.970917,185.332840 
	C347.928650,188.991547 347.962952,192.651138 347.962952,196.310349 
	C346.468109,194.701752 345.732208,193.075256 345.142700,191.397324 
	C340.773865,178.962051 340.779755,178.923370 327.838776,180.114563 
	C326.840668,180.206421 325.933594,181.287323 324.358673,182.503265 
z"/>
<path fill="#5D7E28" opacity="1.000000" stroke="none" 
	d="
M85.976883,180.846024 
	C86.037949,180.548767 86.193596,180.314301 86.850319,179.901367 
	C87.507950,179.417664 87.759087,179.175247 88.010223,178.932816 
	C88.010223,178.932816 88.009995,179.010406 88.158821,178.833054 
	C88.533417,178.397141 88.759186,178.138565 88.984947,177.880005 
	C89.450104,177.328293 89.915268,176.776566 90.827385,175.941620 
	C91.519615,175.414886 91.764893,175.171371 92.010178,174.927856 
	C92.010178,174.927856 92.011345,175.012482 92.155060,174.829681 
	C92.520691,174.380035 92.742607,174.113174 92.964523,173.846313 
	C94.414299,172.325211 95.864067,170.804108 97.793839,168.972549 
	C98.518250,168.419937 98.762665,168.177750 99.007080,167.935577 
	C99.007080,167.935577 99.005898,168.007843 99.160446,167.839996 
	C99.545006,167.425232 99.775017,167.178299 100.005028,166.931366 
	C100.005028,166.931366 100.006622,167.007248 100.156418,166.829987 
	C100.530518,166.391876 100.754829,166.131012 100.979126,165.870132 
	C109.516350,157.246124 118.061783,148.630219 126.586998,139.994339 
	C130.309570,136.223465 134.497314,137.744263 137.944473,139.792847 
	C141.419189,141.857834 144.460602,144.894104 147.146484,147.979538 
	C150.126572,151.402924 149.369583,156.568848 145.807266,160.150116 
	C130.977158,175.059082 116.098145,189.919418 101.243301,204.803818 
	C93.153641,212.909592 85.045662,220.997467 77.003891,229.150558 
	C71.138107,235.097534 67.715614,235.434601 61.179764,230.482803 
	C60.915665,230.282715 60.688705,230.034378 60.435722,229.818741 
	C49.974785,220.901382 50.038055,216.718399 59.976418,207.423569 
	C65.378853,202.370956 70.203377,196.700424 75.775436,190.974243 
	C76.501526,190.388092 76.740746,190.136292 76.979965,189.884506 
	C77.041496,189.583984 77.195747,189.342743 77.842239,188.898239 
	C78.485924,188.384521 78.730064,188.133347 78.974213,187.882172 
	C79.078209,187.592010 79.255943,187.357819 79.904129,186.920135 
	C80.536995,186.415527 80.773155,186.170364 81.009315,185.925217 
	C81.009315,185.925217 81.007347,186.007751 81.157684,185.837128 
	C81.540131,185.417328 81.772247,185.168152 82.004364,184.918976 
	C82.004364,184.918976 82.005394,185.005432 82.154152,184.839050 
	C82.535706,184.426834 82.768494,184.181000 83.001289,183.935150 
	C83.001289,183.935150 83.005951,184.005539 83.158188,183.831894 
	C83.532730,183.398895 83.755020,183.139542 83.977318,182.880188 
	C84.048676,182.578690 84.211105,182.338867 84.864540,181.895721 
	C85.501945,181.369156 85.739418,181.107590 85.976883,180.846024 
M95.321411,176.820877 
	C83.425987,188.685211 71.480598,200.500381 59.696949,212.474716 
	C58.185482,214.010605 56.109085,217.325394 56.695160,218.191376 
	C59.409473,222.202118 62.513603,226.261902 66.367195,229.094589 
	C69.748360,231.580017 72.397552,227.915985 74.707008,225.610062 
	C95.894318,204.455154 117.050278,183.268890 138.218719,162.095093 
	C147.378479,152.932999 147.380127,152.793152 137.975449,143.831879 
	C134.105392,140.144302 132.077957,140.091644 128.287506,143.862488 
	C117.438789,154.655090 106.640182,165.498047 95.321411,176.820877 
z"/>
<path fill="#5B8127" opacity="1.000000" stroke="none" 
	d="
M364.973145,248.004852 
	C359.254639,252.682953 349.420868,250.294952 347.072937,243.704285 
	C345.723877,239.917526 344.238892,236.179153 341.992706,232.622604 
	C341.992706,236.739731 342.042023,240.857788 341.963715,244.973404 
	C341.939148,246.262329 341.707245,248.620300 341.339264,248.666962 
	C336.667786,249.259186 331.920380,249.942230 327.274445,249.571793 
	C326.080811,249.476608 325.173218,245.793777 324.320862,242.970795 
	C324.676270,240.369095 324.988922,238.555878 324.991577,236.742218 
	C325.018219,218.464355 324.994080,200.186417 324.984192,181.908508 
	C325.933594,181.287323 326.840668,180.206421 327.838776,180.114563 
	C340.779755,178.923370 340.773865,178.962051 345.142700,191.397324 
	C345.732208,193.075256 346.468109,194.701752 347.962952,196.310349 
	C347.962952,192.651138 347.928650,188.991547 347.970917,185.332840 
	C348.034302,179.847824 348.907623,179.173798 354.355011,179.937607 
	C357.835327,180.425598 361.338715,180.749252 364.925232,182.016235 
	C365.003510,204.592209 364.988312,226.298523 364.973145,248.004852 
M327.850891,217.499924 
	C327.850891,227.236526 327.850891,236.973145 327.850891,246.971603 
	C330.114532,246.971603 331.457642,246.811768 332.749908,247.000275 
	C337.417694,247.681213 339.339355,246.112701 338.957001,241.073807 
	C338.504944,235.116714 338.857941,229.098587 338.860718,223.106918 
	C338.862183,219.983261 338.860962,216.859604 338.860962,213.735931 
	C343.107391,222.496307 346.213715,231.265060 349.345551,240.024658 
	C352.135254,247.827393 353.434845,248.459824 362.196503,246.031189 
	C362.196503,225.715363 362.384094,205.265564 362.058990,184.823929 
	C361.981812,179.970459 357.382843,182.770660 354.868652,182.245605 
	C352.032074,181.653198 351.159668,183.414581 351.184204,186.075943 
	C351.263916,194.730148 351.226562,203.385666 351.187988,212.040466 
	C351.182922,213.184189 350.909668,214.326706 350.620605,216.543182 
	C349.749908,214.446259 349.329193,213.543381 348.994476,212.609680 
	C345.797180,203.690155 342.405579,194.832565 339.506805,185.816666 
	C337.803925,180.520386 333.786652,182.300919 330.469086,182.275558 
	C326.599304,182.245956 327.934784,185.532608 327.908203,187.538071 
	C327.780365,197.190582 327.851715,206.845703 327.850891,217.499924 
z"/>
<path fill="#5C7F29" opacity="1.000000" stroke="none" 
	d="
M134.139847,208.994415 
	C134.436554,209.067322 134.670120,209.230576 135.089676,209.884201 
	C135.581757,210.531799 135.824738,210.779373 136.067703,211.026947 
	C136.067703,211.026947 135.987350,211.012009 136.062683,211.111206 
	C136.437973,211.465286 136.737946,211.720169 137.037918,211.975052 
	C144.134354,218.983078 151.365082,225.861816 158.280136,233.044464 
	C162.911041,237.854553 162.656876,242.907440 157.659302,247.647629 
	C154.592850,250.556137 151.321106,253.700500 147.532379,255.221222 
	C145.348526,256.097778 141.142731,254.805222 139.249054,253.010040 
	C133.033981,247.118179 127.460213,240.549820 121.397644,233.978745 
	C114.104156,241.307373 108.050621,247.490295 101.879089,253.553131 
	C98.271576,257.097107 94.247688,259.252350 88.915710,257.085724 
	C83.486351,254.879471 77.705650,247.120560 78.100731,241.576813 
	C78.228447,239.784775 79.014038,237.638367 80.244705,236.388779 
	C91.524849,224.935257 102.969337,213.643600 114.992554,202.106689 
	C116.754776,201.305634 117.890343,200.702606 119.025917,200.099579 
	C119.774689,200.061890 120.523453,200.024216 121.922760,200.240479 
	C124.071144,200.986313 125.568993,201.478180 127.066849,201.970047 
	C127.066849,201.970047 127.008430,202.004425 127.181763,202.157532 
	C127.622986,202.536697 127.890869,202.762741 128.158752,202.988785 
	C129.032623,203.783829 129.906479,204.578888 131.072784,205.833313 
	C131.599548,206.537659 131.833878,206.782639 132.068192,207.027618 
	C132.068192,207.027618 131.971542,207.023972 132.154129,207.161224 
	C132.582855,207.540146 132.829010,207.781799 133.075165,208.023453 
	C133.075165,208.023453 132.975235,208.024078 133.162415,208.159592 
	C133.613007,208.528198 133.876434,208.761307 134.139847,208.994415 
M121.296600,203.403931 
	C119.180634,204.521088 116.662910,205.224380 115.015213,206.823914 
	C105.710075,215.857025 96.605209,225.096710 87.448738,234.282608 
	C79.031143,242.727188 79.046806,243.075607 87.772064,251.497818 
	C91.869667,255.453140 94.268295,255.522827 98.344810,251.528275 
	C104.521332,245.475983 110.720421,239.438950 116.680786,233.177307 
	C119.477310,230.239441 121.613571,229.941864 124.475227,233.031784 
	C128.539200,237.419968 132.902603,241.531189 137.146133,245.752640 
	C145.626770,254.189148 146.077271,254.180557 154.370651,245.512344 
	C158.520050,241.175415 158.567261,238.962738 154.239304,234.606049 
	C144.748764,225.052521 135.196884,215.559616 125.618469,206.094193 
	C124.586281,205.074219 123.214073,204.398300 121.296600,203.403931 
z"/>
<path fill="#577D21" opacity="1.000000" stroke="none" 
	d="
M294.941254,222.809814 
	C290.612671,222.867493 286.284088,222.925171 281.344543,223.394928 
	C278.838257,232.550888 280.010986,234.013306 288.861145,233.988159 
	C292.960052,233.976501 297.059021,233.994675 301.157959,233.999313 
	C301.746277,235.844147 302.698975,237.657654 302.860596,239.539154 
	C303.610504,248.267563 301.974670,249.962173 293.309143,249.962433 
	C285.310364,249.962677 277.307312,249.812378 269.314636,250.033875 
	C265.380707,250.142914 263.352753,248.691727 263.275818,243.999054 
	C263.627411,234.095673 263.965302,224.969971 263.967194,215.844177 
	C263.968414,209.890671 263.481720,203.937057 263.213623,197.983490 
	C263.151886,193.535187 262.942047,189.082321 263.078461,184.640106 
	C263.175720,181.471619 264.137573,178.687805 269.031097,179.200775 
	C280.259277,179.595062 290.704681,179.799576 301.150116,180.004074 
	C301.751648,181.830490 302.719086,183.622971 302.892151,185.489120 
	C303.688629,194.077667 301.882172,195.985046 293.408569,195.985611 
	C289.466400,195.985886 285.524261,195.985657 280.680023,195.985657 
	C280.952972,199.663956 281.179352,202.714508 282.117065,206.078674 
	C287.237671,206.585922 291.646942,206.779556 296.056183,206.973175 
	C296.056183,206.973175 296.001373,207.001328 296.128265,207.160507 
	C296.432220,207.572952 296.621826,207.816467 296.823944,208.050247 
	C296.823944,208.050247 296.947418,208.424911 296.958984,209.097687 
	C296.983459,213.531219 296.996368,217.291992 297.009277,221.052750 
	C297.009247,221.052750 296.989655,220.993881 296.774170,221.130463 
	C296.019562,221.781296 295.480408,222.295547 294.941254,222.809814 
M290.441772,192.995453 
	C293.195099,192.995453 295.948425,192.995453 298.554016,192.995453 
	C298.554016,188.933609 298.554016,185.723251 298.554016,182.151733 
	C289.446808,182.151733 280.798157,182.358505 272.166870,182.061340 
	C268.073364,181.920380 266.694641,183.053101 266.743378,187.296600 
	C266.953796,205.616333 266.825500,223.939865 266.852509,242.261963 
	C266.854614,243.698669 267.103058,245.135025 267.235687,246.557037 
	C278.009430,246.557037 288.378418,246.557037 298.723419,246.557037 
	C298.723419,243.007202 298.723419,239.902740 298.723419,236.144379 
	C291.717957,236.144379 284.985779,236.144379 278.068726,236.144379 
	C278.068726,230.450287 278.068726,225.423615 278.068726,219.849609 
	C283.554810,219.849609 288.635315,219.849609 293.953857,219.849609 
	C294.072662,217.849274 294.067383,216.370468 294.264069,214.919037 
	C294.873993,210.418701 293.179138,208.544266 288.479706,209.063492 
	C285.082184,209.438858 281.609802,209.136673 278.092773,209.136673 
	C278.092773,203.394852 278.092773,198.366638 278.092773,192.995438 
	C282.180359,192.995438 285.822235,192.995438 290.441772,192.995453 
z"/>
<path fill="#597C24" opacity="1.000000" stroke="none" 
	d="
M420.023163,179.978226 
	C420.343872,180.076904 420.604675,180.260620 421.037445,180.913818 
	C421.433258,181.523071 421.604248,181.742371 421.782288,181.956161 
	C423.795074,190.423355 425.911652,198.867554 427.795624,207.363312 
	C430.436615,219.272919 432.885895,231.224945 435.455292,243.150604 
	C436.547394,248.219421 435.306793,249.843735 430.070129,249.966705 
	C428.906342,249.994049 427.741516,249.978592 426.577148,249.977341 
	C418.777222,249.969009 418.081360,249.637100 417.147400,241.928619 
	C416.684662,238.109619 415.259705,236.895813 411.522858,236.860077 
	C407.476654,236.821381 407.273376,238.974686 406.753815,242.124359 
	C406.314148,244.789581 404.786987,249.003311 403.051941,249.383026 
	C398.875854,250.296997 394.268311,249.569290 389.904236,248.984985 
	C389.134094,248.881882 387.952271,246.107483 388.222870,244.835144 
	C392.632080,224.103668 397.244720,203.415482 402.275513,182.443359 
	C403.592590,182.200928 404.445679,182.232681 405.213562,182.648804 
	C400.559448,204.100693 395.990570,225.168198 391.420776,246.239975 
	C401.920074,248.352631 402.342865,248.070282 403.946930,238.455750 
	C404.056305,237.800171 403.922302,236.934814 404.295197,236.526367 
	C405.168213,235.569977 406.231873,234.202179 407.304779,234.119263 
	C411.087250,233.826920 414.906097,234.005569 418.927521,234.005569 
	C419.795441,238.047882 419.521576,242.720505 421.721191,245.189453 
	C423.576843,247.272263 428.303467,246.797287 432.397552,247.575806 
	C432.000763,244.690750 431.894409,243.209808 431.584595,241.772720 
	C428.189148,226.023178 424.772522,210.278168 421.340118,194.536621 
	C418.533722,181.666336 418.520782,181.669159 405.305908,181.971924 
	C405.567841,180.792480 405.787231,179.940613 406.006622,179.088745 
	C406.765503,179.062195 407.524384,179.035645 409.005920,179.194031 
	C412.138458,179.311539 414.548279,179.244110 416.958130,179.176682 
	C417.140686,179.153915 417.323212,179.131165 418.018127,179.258698 
	C419.028107,179.598709 419.525635,179.788467 420.023163,179.978226 
z"/>
<path fill="#5B7D28" opacity="1.000000" stroke="none" 
	d="
M197.788879,230.944702 
	C194.463791,234.795074 191.493805,239.052368 187.698715,242.364136 
	C184.781311,244.910004 178.164719,243.172714 174.620270,239.666870 
	C160.902237,226.098175 147.196716,212.516113 133.586182,198.839859 
	C128.782562,194.013031 128.999344,188.714340 133.862061,183.225021 
	C135.696198,181.154541 137.393356,178.898590 139.503326,177.149918 
	C143.895752,173.509552 147.892578,174.285889 151.980484,178.371094 
	C162.434143,188.817841 173.107986,199.044266 184.020599,209.833618 
	C184.586151,210.543671 184.824844,210.778931 185.063538,211.014191 
	C185.063538,211.014191 184.982391,211.014236 185.157669,211.158356 
	C185.574631,211.539978 185.816330,211.777451 186.058014,212.014938 
	C186.058014,212.014938 185.984940,212.015289 186.159882,212.162872 
	C186.578339,212.545288 186.821854,212.780136 187.065353,213.014984 
	C187.065353,213.014984 186.984192,213.015610 187.159149,213.160675 
	C187.578415,213.542007 187.822723,213.778259 188.067047,214.014511 
	C188.067047,214.014511 187.984100,214.015518 188.159470,214.160004 
	C188.579697,214.541412 188.824554,214.778336 189.069427,215.015259 
	C189.069427,215.015259 188.983505,215.016190 189.159302,215.159622 
	C189.580322,215.540680 189.825546,215.778305 190.070770,216.015915 
	C190.070770,216.015915 189.982941,216.016861 190.159134,216.159546 
	C190.580902,216.540375 190.826477,216.778503 191.072052,217.016632 
	C191.072052,217.016632 190.980728,217.020721 191.167007,217.157166 
	C191.614532,217.524277 191.875763,217.754959 192.137009,217.985641 
	C192.437622,218.042465 192.675140,218.196564 193.097870,218.849426 
	C193.582947,219.505142 193.819687,219.759323 194.056427,220.013489 
	C194.056427,220.013489 193.985321,220.012024 194.165741,220.159088 
	C194.604355,220.528595 194.862564,220.751038 195.120773,220.973480 
	C195.739273,221.717087 196.357773,222.460693 196.990845,223.923752 
	C197.266556,226.743698 197.527710,228.844208 197.788879,230.944702 
M134.446320,187.483871 
	C132.489105,191.199203 134.420044,193.720551 136.945953,196.227982 
	C149.457932,208.648438 161.921448,221.117783 174.383118,233.588806 
	C182.670761,241.882660 183.016190,241.894897 191.215851,233.492554 
	C195.819153,228.775467 195.875015,226.956787 191.254288,222.309830 
	C179.408554,210.396835 167.535446,198.510880 155.635773,186.651749 
	C145.163147,176.214798 145.140717,176.237305 134.446320,187.483871 
z"/>
<path fill="#557A20" opacity="1.000000" stroke="none" 
	d="
M259.795380,180.034653 
	C260.083832,184.733551 260.537445,189.434998 260.465393,194.128372 
	C260.455688,194.761581 257.843597,195.719406 256.364532,195.885468 
	C253.730087,196.181274 251.040604,195.990646 248.374115,195.996277 
	C245.893005,196.001511 243.411865,195.997406 240.470825,195.997406 
	C240.470825,199.271774 240.470825,202.164993 240.470825,205.970551 
	C243.924255,205.970551 247.520508,206.160873 251.086807,205.915466 
	C254.454590,205.683685 256.059967,207.182129 256.435699,210.307068 
	C256.652924,212.113663 256.860413,213.944489 256.806335,215.756454 
	C256.619415,222.017334 255.620514,222.945404 249.464447,222.977310 
	C246.965454,222.990265 244.466095,223.012238 241.968155,223.077805 
	C241.489578,223.090363 241.016846,223.325928 239.623962,223.714691 
	C239.623962,230.561737 239.477875,237.632782 239.680130,244.693848 
	C239.796814,248.767761 238.287247,250.513428 234.183289,250.003189 
	C230.522629,249.548080 226.844498,249.233337 223.069199,247.981262 
	C222.976898,225.736237 222.989487,204.366547 223.310211,182.887939 
	C224.462357,182.564651 225.306366,182.350296 225.991974,182.510559 
	C225.703094,183.700211 225.459579,184.515121 225.458755,185.330292 
	C225.439194,204.466644 225.436523,223.603027 225.468353,242.739349 
	C225.470490,244.029877 225.769119,245.319916 225.940918,246.698944 
	C229.470291,246.698944 232.717499,246.698944 236.677216,246.698944 
	C236.677216,242.103561 236.677231,237.820908 236.677231,233.538239 
	C236.677231,229.137299 236.677216,224.736343 236.677216,219.746109 
	C242.647751,219.746109 247.709305,219.746109 252.560181,219.746109 
	C252.560181,215.913956 252.560181,212.699600 252.560181,209.000351 
	C247.137070,209.000351 242.207779,209.000351 237.063110,209.000351 
	C237.063110,203.473358 237.063110,198.454361 237.063110,192.784637 
	C244.163727,192.784637 250.879990,192.784637 257.661652,192.784637 
	C257.792084,190.994110 257.929718,189.847961 257.950317,188.699692 
	C258.068604,182.110107 258.059174,182.099304 251.557480,182.107819 
	C243.071213,182.118927 234.584976,182.148987 226.334503,181.877686 
	C228.572540,181.060364 230.567566,180.118607 232.578278,180.083847 
	C241.648224,179.927048 250.722595,180.027130 259.795380,180.034653 
z"/>
<path fill="#5A8026" opacity="1.000000" stroke="none" 
	d="
M321.844177,192.999908 
	C321.887238,197.706955 321.930359,202.413986 321.779877,207.971420 
	C321.388977,210.625580 321.029480,212.428558 321.020630,214.233246 
	C320.963867,225.834793 320.983887,237.436691 320.978699,249.038483 
	C316.415955,249.325287 311.807037,250.065308 307.320160,249.607819 
	C306.062347,249.479553 305.163940,245.826797 304.277344,243.000504 
	C304.644318,239.899292 304.994354,237.588715 304.999573,235.277328 
	C305.039795,217.491272 305.013123,199.705048 305.007202,181.918884 
	C305.576721,181.005493 306.165710,179.291367 306.712769,179.304657 
	C311.344147,179.417053 315.967896,179.844498 320.796265,180.979767 
	C321.280426,185.521393 321.562317,189.260651 321.844177,192.999908 
M318.856323,205.500137 
	C318.857361,200.674942 318.856720,195.849747 318.859680,191.024551 
	C318.865540,181.550278 318.866058,181.546432 309.239594,182.376785 
	C308.954254,182.401413 308.692841,182.703415 308.198730,183.016418 
	C308.198730,204.077011 308.198730,225.268265 308.198730,246.703537 
	C309.843353,246.809601 311.135956,246.949478 312.430176,246.966843 
	C318.854248,247.053009 318.853699,247.041641 318.853912,240.442886 
	C318.854279,229.128632 318.855560,217.814377 318.856323,205.500137 
z"/>
<path fill="#5B8125" opacity="1.000000" stroke="none" 
	d="
M454.035645,247.992752 
	C451.750702,249.878494 439.979889,251.021439 438.252289,249.275681 
	C437.462463,248.477600 437.125549,246.952682 437.086060,245.741013 
	C436.946747,241.467514 437.025085,237.186920 437.164215,232.203156 
	C437.252747,230.670563 437.197906,229.843842 437.143066,229.017136 
	C437.096222,228.564606 437.049377,228.112091 437.190521,226.936096 
	C437.317078,214.820938 437.255676,203.429260 437.194275,192.037582 
	C437.141144,189.544479 437.136780,187.049164 437.023438,184.558792 
	C436.855316,180.865311 438.394653,178.872375 442.934448,179.214539 
	C444.737396,179.291809 445.868378,179.215424 446.999329,179.139038 
	C447.739319,179.110397 448.479340,179.081741 449.707611,179.395477 
	C450.412598,180.564407 450.629303,181.390945 450.405151,182.202042 
	C449.131134,182.179352 448.298004,182.171707 447.464874,182.164932 
	C440.220764,182.106064 440.209167,182.106094 440.205505,189.461700 
	C440.197388,205.624969 440.207123,221.788239 440.199860,237.951508 
	C440.195374,247.933823 440.187500,247.934875 450.148102,246.738739 
	C450.283142,246.722519 450.397858,246.536850 451.252869,245.803055 
	C451.252869,242.341690 451.281158,238.232468 451.247986,234.123764 
	C451.108215,216.806686 450.950043,199.489777 451.204834,182.144318 
	C452.424530,182.072540 453.238037,182.029282 454.051544,181.986008 
	C454.051544,181.986008 453.998566,182.003998 454.002075,182.449463 
	C454.015625,204.594208 454.025635,226.293488 454.035645,247.992752 
z"/>
<path fill="#5B7435" opacity="1.000000" stroke="none" 
	d="
M454.347198,247.707855 
	C454.025635,226.293488 454.015625,204.594208 454.009552,182.422516 
	C454.330109,182.673630 454.924713,183.397858 454.922943,184.120636 
	C454.871368,205.221497 454.760284,226.322220 454.347198,247.707855 
z"/>
<path fill="#657C42" opacity="1.000000" stroke="none" 
	d="
M365.290985,247.720062 
	C364.988312,226.298523 365.003510,204.592209 365.025818,182.413971 
	C365.341064,182.491287 365.920197,183.041412 365.918365,183.589600 
	C365.848206,204.871597 365.725037,226.153412 365.290985,247.720062 
z"/>
<path fill="#6B8449" opacity="1.000000" stroke="none" 
	d="
M223.002075,182.996872 
	C222.989487,204.366547 222.976898,225.736237 222.976822,247.577667 
	C222.667542,246.505066 222.069397,244.961334 222.065842,243.416229 
	C222.020218,223.566238 222.059479,203.716064 222.336975,183.417084 
	C222.596725,182.968231 223.002075,182.996872 223.002075,182.996872 
z"/>
<path fill="#607939" opacity="1.000000" stroke="none" 
	d="
M304.685974,182.208740 
	C305.013123,199.705048 305.039795,217.491272 304.999573,235.277328 
	C304.994354,237.588715 304.644318,239.899292 304.326538,242.601837 
	C304.254303,222.828491 304.309509,202.663544 304.685974,182.208740 
z"/>
<path fill="#5B7435" opacity="1.000000" stroke="none" 
	d="
M324.671448,182.205887 
	C324.994080,200.186417 325.018219,218.464355 324.991577,236.742218 
	C324.988922,238.555878 324.676270,240.369095 324.383484,242.571655 
	C324.292542,222.808273 324.325592,202.655777 324.671448,182.205887 
z"/>
<path fill="#607939" opacity="1.000000" stroke="none" 
	d="
M263.146667,198.451599 
	C263.481720,203.937057 263.968414,209.890671 263.967194,215.844177 
	C263.965302,224.969971 263.627411,234.095673 263.304199,243.613129 
	C263.144104,228.976471 263.111908,213.948090 263.146667,198.451599 
z"/>
<path fill="#5C7F29" opacity="1.000000" stroke="none" 
	d="
M223.310211,182.887939 
	C223.002075,182.996872 222.596725,182.968231 222.394592,182.946808 
	C223.580215,181.624512 224.947617,179.223450 226.358948,179.197357 
	C237.336807,178.994247 248.323135,179.248627 259.551117,179.698120 
	C250.722595,180.027130 241.648224,179.927048 232.578278,180.083847 
	C230.567566,180.118607 228.572540,181.060364 226.329407,181.842514 
	C226.088547,182.100525 226.150391,182.135941 226.150391,182.135941 
	C225.306366,182.350296 224.462357,182.564651 223.310211,182.887939 
z"/>
<path fill="#607939" opacity="1.000000" stroke="none" 
	d="
M321.307678,248.759918 
	C320.983887,237.436691 320.963867,225.834793 321.020630,214.233246 
	C321.029480,212.428558 321.388977,210.625580 321.720947,208.437744 
	C321.782623,221.529572 321.709625,235.005463 321.307678,248.759918 
z"/>
<path fill="#5C7F29" opacity="1.000000" stroke="none" 
	d="
M437.134491,192.500580 
	C437.255676,203.429260 437.317078,214.820938 437.237671,226.597549 
	C437.089508,215.642853 437.082092,204.303207 437.134491,192.500580 
z"/>
<path fill="#657C42" opacity="1.000000" stroke="none" 
	d="
M300.859009,179.676025 
	C290.704681,179.799576 280.259277,179.595062 269.428345,179.257584 
	C279.551239,179.199066 290.059570,179.273529 300.859009,179.676025 
z"/>
<path fill="#607939" opacity="1.000000" stroke="none" 
	d="
M300.862427,233.676041 
	C297.059021,233.994675 292.960052,233.976501 288.861145,233.988159 
	C280.010986,234.013306 278.838257,232.550888 280.884827,223.444717 
	C281.036072,226.165405 281.036072,229.248367 281.036072,233.352768 
	C287.885315,233.352768 294.226105,233.352768 300.862427,233.676041 
z"/>
<path fill="#607939" opacity="1.000000" stroke="none" 
	d="
M295.786560,206.639709 
	C291.646942,206.779556 287.237671,206.585922 282.447754,206.260376 
	C286.550385,206.187698 291.033691,206.246964 295.786560,206.639709 
z"/>
<path fill="#607939" opacity="1.000000" stroke="none" 
	d="
M297.313232,220.762329 
	C296.996368,217.291992 296.983459,213.531219 296.977448,209.294067 
	C297.195282,212.702438 297.406219,216.587173 297.313232,220.762329 
z"/>
<path fill="#607939" opacity="1.000000" stroke="none" 
	d="
M321.898987,192.544678 
	C321.562317,189.260651 321.280426,185.521393 321.001953,181.316620 
	C321.321503,184.597229 321.637634,188.343323 321.898987,192.544678 
z"/>
<path fill="#5B7435" opacity="1.000000" stroke="none" 
	d="
M453.991394,181.628113 
	C453.238037,182.029282 452.424530,182.072540 451.238190,182.132690 
	C450.865356,182.149582 450.846008,182.217484 450.846008,182.217484 
	C450.629303,181.390945 450.412598,180.564407 450.076324,179.439026 
	C451.281586,179.850189 452.606445,180.560196 453.991394,181.628113 
z"/>
<path fill="#5C7F29" opacity="1.000000" stroke="none" 
	d="
M405.674561,179.064819 
	C405.787231,179.940613 405.567841,180.792480 405.274384,181.922546 
	C405.200317,182.200729 405.298767,182.264420 405.298767,182.264435 
	C404.445679,182.232681 403.592590,182.200928 402.488586,182.116013 
	C403.272583,181.055542 404.307526,180.048218 405.674561,179.064819 
z"/>
<path fill="#5C7F29" opacity="1.000000" stroke="none" 
	d="
M416.522156,179.112091 
	C414.548279,179.244110 412.138458,179.311539 409.382568,179.248566 
	C411.386414,179.094604 413.736267,179.071060 416.522156,179.112091 
z"/>
<path fill="#607939" opacity="1.000000" stroke="none" 
	d="
M197.858170,230.532104 
	C197.527710,228.844208 197.266556,226.743698 197.009277,224.227051 
	C197.317932,225.913773 197.622696,228.016647 197.858170,230.532104 
z"/>
<path fill="#657C42" opacity="1.000000" stroke="none" 
	d="
M126.899826,201.640717 
	C125.568993,201.478180 124.071144,200.986313 122.293686,200.302094 
	C123.586983,200.510315 125.159897,200.910858 126.899826,201.640717 
z"/>
<path fill="#657C42" opacity="1.000000" stroke="none" 
	d="
M118.674118,200.065002 
	C117.890343,200.702606 116.754776,201.305634 115.294174,201.967896 
	C116.086876,201.361542 117.204590,200.695984 118.674118,200.065002 
z"/>
<path fill="#607939" opacity="1.000000" stroke="none" 
	d="
M295.273926,222.848007 
	C295.480408,222.295547 296.019562,221.781296 296.805176,221.129654 
	C296.569977,221.623581 296.088257,222.254898 295.273926,222.848007 
z"/>
<path fill="#5B7435" opacity="1.000000" stroke="none" 
	d="
M446.607178,179.081497 
	C445.868378,179.215424 444.737396,179.291809 443.334381,179.264923 
	C444.113220,179.115768 445.164154,179.069870 446.607178,179.081497 
z"/>
<path fill="#5C7F29" opacity="1.000000" stroke="none" 
	d="
M437.081360,229.384216 
	C437.197906,229.843842 437.252747,230.670563 437.215027,231.736389 
	C437.088196,231.234085 437.053925,230.492691 437.081360,229.384216 
z"/>
<path fill="#5C7F29" opacity="1.000000" stroke="none" 
	d="
M419.872681,179.727112 
	C419.525635,179.788467 419.028107,179.598709 418.292358,179.289062 
	C418.610168,179.271454 419.166168,179.373718 419.872681,179.727112 
z"/>
<path fill="#657C42" opacity="1.000000" stroke="none" 
	d="
M136.931305,211.743500 
	C136.737946,211.720169 136.437973,211.465286 136.070114,211.071014 
	C136.276398,211.125061 136.550552,211.318497 136.931305,211.743500 
z"/>
<path fill="#607939" opacity="1.000000" stroke="none" 
	d="
M187.957199,213.771729 
	C187.822723,213.778259 187.578415,213.542007 187.158813,213.120102 
	C187.271469,213.132614 187.559418,213.330780 187.957199,213.771729 
z"/>
<path fill="#607939" opacity="1.000000" stroke="none" 
	d="
M188.959702,214.771530 
	C188.824554,214.778336 188.579697,214.541412 188.158936,214.118530 
	C188.272018,214.130966 188.561005,214.329376 188.959702,214.771530 
z"/>
<path fill="#607939" opacity="1.000000" stroke="none" 
	d="
M189.962234,215.770584 
	C189.825546,215.778305 189.580322,215.540680 189.158813,215.116669 
	C189.272919,215.128586 189.563309,215.326920 189.962234,215.770584 
z"/>
<path fill="#607939" opacity="1.000000" stroke="none" 
	d="
M190.964523,216.769958 
	C190.826477,216.778503 190.580902,216.540375 190.158630,216.115631 
	C190.273636,216.127121 190.565308,216.325195 190.964523,216.769958 
z"/>
<path fill="#607939" opacity="1.000000" stroke="none" 
	d="
M192.007339,217.746628 
	C191.875763,217.754959 191.614532,217.524277 191.164948,217.111511 
	C191.276962,217.122147 191.577316,217.314880 192.007339,217.746628 
z"/>
<path fill="#607939" opacity="1.000000" stroke="none" 
	d="
M186.955948,212.773117 
	C186.821854,212.780136 186.578339,212.545288 186.159668,212.126312 
	C186.271851,212.138550 186.559204,212.334900 186.955948,212.773117 
z"/>
<path fill="#607939" opacity="1.000000" stroke="none" 
	d="
M193.961212,219.758667 
	C193.819687,219.759323 193.582947,219.505142 193.180969,219.049622 
	C193.299164,219.066788 193.582581,219.285309 193.961212,219.758667 
z"/>
<path fill="#607939" opacity="1.000000" stroke="none" 
	d="
M195.001068,220.733795 
	C194.862564,220.751038 194.604355,220.528595 194.166443,220.123535 
	C194.284958,220.125305 194.583160,220.309692 195.001068,220.733795 
z"/>
<path fill="#607939" opacity="1.000000" stroke="none" 
	d="
M185.944473,211.776505 
	C185.816330,211.777451 185.574631,211.539978 185.157623,211.117798 
	C185.265167,211.134750 185.548050,211.336411 185.944473,211.776505 
z"/>
<path fill="#607939" opacity="1.000000" stroke="none" 
	d="
M184.959015,210.772003 
	C184.824844,210.778931 184.586151,210.543671 184.174133,210.126709 
	C184.285370,210.139923 184.569931,210.334869 184.959015,210.772003 
z"/>
<path fill="#5B7435" opacity="1.000000" stroke="none" 
	d="
M100.734543,165.987335 
	C100.754829,166.131012 100.530518,166.391876 100.118484,166.830811 
	C100.117149,166.707413 100.303551,166.405975 100.734543,165.987335 
z"/>
<path fill="#5B7435" opacity="1.000000" stroke="none" 
	d="
M76.738571,190.002991 
	C76.740746,190.136292 76.501526,190.388092 76.062592,190.807007 
	C76.074310,190.689926 76.285744,190.405716 76.738571,190.002991 
z"/>
<path fill="#5B7435" opacity="1.000000" stroke="none" 
	d="
M80.766197,186.033188 
	C80.773155,186.170364 80.536995,186.415527 80.106339,186.825607 
	C80.115585,186.707413 80.319336,186.424286 80.766197,186.033188 
z"/>
<path fill="#5B7435" opacity="1.000000" stroke="none" 
	d="
M88.747025,178.003387 
	C88.759186,178.138565 88.533417,178.397141 88.120026,178.832947 
	C88.124634,178.715729 88.316872,178.421234 88.747025,178.003387 
z"/>
<path fill="#5B7435" opacity="1.000000" stroke="none" 
	d="
M85.739014,180.979034 
	C85.739418,181.107590 85.501945,181.369156 85.067581,181.808167 
	C85.080841,181.694412 85.291000,181.403229 85.739014,180.979034 
z"/>
<path fill="#5C7F29" opacity="1.000000" stroke="none" 
	d="
M421.763123,181.727692 
	C421.604248,181.742371 421.433258,181.523071 421.147766,181.129669 
	C421.338623,181.042847 421.577850,181.222229 421.763123,181.727692 
z"/>
<path fill="#5B7435" opacity="1.000000" stroke="none" 
	d="
M91.761017,175.031647 
	C91.764893,175.171371 91.519615,175.414886 91.073647,175.822495 
	C91.085922,175.702881 91.298889,175.419174 91.761017,175.031647 
z"/>
<path fill="#5B7435" opacity="1.000000" stroke="none" 
	d="
M92.727341,173.977356 
	C92.742607,174.113174 92.520691,174.380035 92.112747,174.830292 
	C92.114525,174.711929 92.302338,174.410172 92.727341,173.977356 
z"/>
<path fill="#5B7435" opacity="1.000000" stroke="none" 
	d="
M98.757523,168.036346 
	C98.762665,168.177750 98.518250,168.419937 98.073135,168.824295 
	C98.084282,168.703354 98.296127,168.420242 98.757523,168.036346 
z"/>
<path fill="#5B7435" opacity="1.000000" stroke="none" 
	d="
M83.746803,183.010406 
	C83.755020,183.139542 83.532730,183.398895 83.122986,183.834106 
	C83.129120,183.720200 83.322708,183.430420 83.746803,183.010406 
z"/>
<path fill="#5B7435" opacity="1.000000" stroke="none" 
	d="
M82.751335,184.032623 
	C82.768494,184.181000 82.535706,184.426834 82.110916,184.839584 
	C82.113083,184.714355 82.307236,184.422226 82.751335,184.032623 
z"/>
<path fill="#5B7435" opacity="1.000000" stroke="none" 
	d="
M81.754082,185.020004 
	C81.772247,185.168152 81.540131,185.417328 81.116409,185.836151 
	C81.117813,185.710892 81.310806,185.415955 81.754082,185.020004 
z"/>
<path fill="#657C42" opacity="1.000000" stroke="none" 
	d="
M135.964081,210.776031 
	C135.824738,210.779373 135.581757,210.531799 135.170090,210.086487 
	C135.287735,210.100876 135.574097,210.313004 135.964081,210.776031 
z"/>
<path fill="#5B7435" opacity="1.000000" stroke="none" 
	d="
M78.724045,187.991714 
	C78.730064,188.133347 78.485924,188.384521 78.039169,188.803131 
	C78.048996,188.680801 78.261444,188.391037 78.724045,187.991714 
z"/>
<path fill="#5B7435" opacity="1.000000" stroke="none" 
	d="
M87.762009,179.040070 
	C87.759087,179.175247 87.507950,179.417664 87.049927,179.820618 
	C87.066620,179.703201 87.290199,179.425262 87.762009,179.040070 
z"/>
<path fill="#657C42" opacity="1.000000" stroke="none" 
	d="
M128.030960,202.744324 
	C127.890869,202.762741 127.622986,202.536697 127.167160,202.126953 
	C127.287209,202.128799 127.595184,202.314331 128.030960,202.744324 
z"/>
<path fill="#5B7435" opacity="1.000000" stroke="none" 
	d="
M99.764984,167.041428 
	C99.775017,167.178299 99.545006,167.425232 99.124306,167.839432 
	C99.130737,167.721634 99.327843,167.436554 99.764984,167.041428 
z"/>
<path fill="#657C42" opacity="1.000000" stroke="none" 
	d="
M131.963562,206.784180 
	C131.833878,206.782639 131.599548,206.537659 131.193604,206.105682 
	C131.300964,206.126022 131.579941,206.333374 131.963562,206.784180 
z"/>
<path fill="#657C42" opacity="1.000000" stroke="none" 
	d="
M132.973801,207.769196 
	C132.829010,207.781799 132.582855,207.540146 132.155945,207.112900 
	C132.274246,207.123199 132.573349,207.319077 132.973801,207.769196 
z"/>
<path fill="#607939" opacity="1.000000" stroke="none" 
	d="
M296.801727,207.796463 
	C296.621826,207.816467 296.432220,207.572952 296.123413,207.130066 
	C296.254272,207.141190 296.516876,207.341934 296.801727,207.796463 
z"/>
<path fill="#657C42" opacity="1.000000" stroke="none" 
	d="
M134.023010,208.741364 
	C133.876434,208.761307 133.613007,208.528198 133.162079,208.109619 
	C133.285095,208.112198 133.595627,208.300247 134.023010,208.741364 
z"/>
<path fill="#CEF797" opacity="1.000000" stroke="none" 
	d="
M95.571640,176.571045 
	C106.640182,165.498047 117.438789,154.655090 128.287506,143.862488 
	C132.077957,140.091644 134.105392,140.144302 137.975449,143.831879 
	C147.380127,152.793152 147.378479,152.932999 138.218719,162.095093 
	C117.050278,183.268890 95.894318,204.455154 74.707008,225.610062 
	C72.397552,227.915985 69.748360,231.580017 66.367195,229.094589 
	C62.513603,226.261902 59.409473,222.202118 56.695160,218.191376 
	C56.109085,217.325394 58.185482,214.010605 59.696949,212.474716 
	C71.480598,200.500381 83.425987,188.685211 95.571640,176.571045 
z"/>
<path fill="#CDF797" opacity="1.000000" stroke="none" 
	d="
M327.851624,216.999908 
	C327.851715,206.845703 327.780365,197.190582 327.908203,187.538071 
	C327.934784,185.532608 326.599304,182.245956 330.469086,182.275558 
	C333.786652,182.300919 337.803925,180.520386 339.506805,185.816666 
	C342.405579,194.832565 345.797180,203.690155 348.994476,212.609680 
	C349.329193,213.543381 349.749908,214.446259 350.620605,216.543182 
	C350.909668,214.326706 351.182922,213.184189 351.187988,212.040466 
	C351.226562,203.385666 351.263916,194.730148 351.184204,186.075943 
	C351.159668,183.414581 352.032074,181.653198 354.868652,182.245605 
	C357.382843,182.770660 361.981812,179.970459 362.058990,184.823929 
	C362.384094,205.265564 362.196503,225.715363 362.196503,246.031189 
	C353.434845,248.459824 352.135254,247.827393 349.345551,240.024658 
	C346.213715,231.265060 343.107391,222.496307 338.860962,213.735931 
	C338.860962,216.859604 338.862183,219.983261 338.860718,223.106918 
	C338.857941,229.098587 338.504944,235.116714 338.957001,241.073807 
	C339.339355,246.112701 337.417694,247.681213 332.749908,247.000275 
	C331.457642,246.811768 330.114532,246.971603 327.850891,246.971603 
	C327.850891,236.973145 327.850891,227.236526 327.851624,216.999908 
z"/>
<path fill="#CEF797" opacity="1.000000" stroke="none" 
	d="
M121.648102,203.483368 
	C123.214073,204.398300 124.586281,205.074219 125.618469,206.094193 
	C135.196884,215.559616 144.748764,225.052521 154.239304,234.606049 
	C158.567261,238.962738 158.520050,241.175415 154.370651,245.512344 
	C146.077271,254.180557 145.626770,254.189148 137.146133,245.752640 
	C132.902603,241.531189 128.539200,237.419968 124.475227,233.031784 
	C121.613571,229.941864 119.477310,230.239441 116.680786,233.177307 
	C110.720421,239.438950 104.521332,245.475983 98.344810,251.528275 
	C94.268295,255.522827 91.869667,255.453140 87.772064,251.497818 
	C79.046806,243.075607 79.031143,242.727188 87.448738,234.282608 
	C96.605209,225.096710 105.710075,215.857025 115.015213,206.823914 
	C116.662910,205.224380 119.180634,204.521088 121.648102,203.483368 
z"/>
<path fill="#CDF797" opacity="1.000000" stroke="none" 
	d="
M289.952942,192.995453 
	C285.822235,192.995438 282.180359,192.995438 278.092773,192.995438 
	C278.092773,198.366638 278.092773,203.394852 278.092773,209.136673 
	C281.609802,209.136673 285.082184,209.438858 288.479706,209.063492 
	C293.179138,208.544266 294.873993,210.418701 294.264069,214.919037 
	C294.067383,216.370468 294.072662,217.849274 293.953857,219.849609 
	C288.635315,219.849609 283.554810,219.849609 278.068726,219.849609 
	C278.068726,225.423615 278.068726,230.450287 278.068726,236.144379 
	C284.985779,236.144379 291.717957,236.144379 298.723419,236.144379 
	C298.723419,239.902740 298.723419,243.007202 298.723419,246.557037 
	C288.378418,246.557037 278.009430,246.557037 267.235687,246.557037 
	C267.103058,245.135025 266.854614,243.698669 266.852509,242.261963 
	C266.825500,223.939865 266.953796,205.616333 266.743378,187.296600 
	C266.694641,183.053101 268.073364,181.920380 272.166870,182.061340 
	C280.798157,182.358505 289.446808,182.151733 298.554016,182.151733 
	C298.554016,185.723251 298.554016,188.933609 298.554016,192.995453 
	C295.948425,192.995453 293.195099,192.995453 289.952942,192.995453 
z"/>
<path fill="#CDF797" opacity="1.000000" stroke="none" 
	d="
M405.231873,182.250122 
	C418.520782,181.669159 418.533722,181.666336 421.340118,194.536621 
	C424.772522,210.278168 428.189148,226.023178 431.584595,241.772720 
	C431.894409,243.209808 432.000763,244.690750 432.397552,247.575806 
	C428.303467,246.797287 423.576843,247.272263 421.721191,245.189453 
	C419.521576,242.720505 419.795441,238.047882 418.927521,234.005569 
	C414.906097,234.005569 411.087250,233.826920 407.304779,234.119263 
	C406.231873,234.202179 405.168213,235.569977 404.295197,236.526367 
	C403.922302,236.934814 404.056305,237.800171 403.946930,238.455750 
	C402.342865,248.070282 401.920074,248.352631 391.420776,246.239975 
	C395.990570,225.168198 400.559448,204.100693 405.213562,182.648804 
	C405.298767,182.264420 405.200317,182.200729 405.231873,182.250122 
M410.936340,202.126617 
	C409.612274,209.450500 408.288208,216.774368 406.894867,224.481354 
	C410.427246,224.481354 413.487854,224.481354 416.963043,224.481354 
	C415.567352,216.625015 414.248901,209.132004 412.831268,201.657806 
	C412.797607,201.480270 411.653564,201.513367 410.936340,202.126617 
z"/>
<path fill="#CCF696" opacity="1.000000" stroke="none" 
	d="
M134.682312,187.176010 
	C145.140717,176.237305 145.163147,176.214798 155.635773,186.651749 
	C167.535446,198.510880 179.408554,210.396835 191.254288,222.309830 
	C195.875015,226.956787 195.819153,228.775467 191.215851,233.492554 
	C183.016190,241.894897 182.670761,241.882660 174.383118,233.588806 
	C161.921448,221.117783 149.457932,208.648438 136.945953,196.227982 
	C134.420044,193.720551 132.489105,191.199203 134.682312,187.176010 
z"/>
<path fill="#CAF393" opacity="1.000000" stroke="none" 
	d="
M226.093628,182.135712 
	C234.584976,182.148987 243.071213,182.118927 251.557480,182.107819 
	C258.059174,182.099304 258.068604,182.110107 257.950317,188.699692 
	C257.929718,189.847961 257.792084,190.994110 257.661652,192.784637 
	C250.879990,192.784637 244.163727,192.784637 237.063110,192.784637 
	C237.063110,198.454361 237.063110,203.473358 237.063110,209.000351 
	C242.207779,209.000351 247.137070,209.000351 252.560181,209.000351 
	C252.560181,212.699600 252.560181,215.913956 252.560181,219.746109 
	C247.709305,219.746109 242.647751,219.746109 236.677216,219.746109 
	C236.677216,224.736343 236.677231,229.137299 236.677231,233.538239 
	C236.677231,237.820908 236.677216,242.103561 236.677216,246.698944 
	C232.717499,246.698944 229.470291,246.698944 225.940918,246.698944 
	C225.769119,245.319916 225.470490,244.029877 225.468353,242.739349 
	C225.436523,223.603027 225.439194,204.466644 225.458755,185.330292 
	C225.459579,184.515121 225.703094,183.700211 225.991974,182.510559 
	C226.150391,182.135941 226.088547,182.100525 226.093628,182.135712 
z"/>
<path fill="#CDF797" opacity="1.000000" stroke="none" 
	d="
M318.856384,206.000122 
	C318.855560,217.814377 318.854279,229.128632 318.853912,240.442886 
	C318.853699,247.041641 318.854248,247.053009 312.430176,246.966843 
	C311.135956,246.949478 309.843353,246.809601 308.198730,246.703537 
	C308.198730,225.268265 308.198730,204.077011 308.198730,183.016418 
	C308.692841,182.703415 308.954254,182.401413 309.239594,182.376785 
	C318.866058,181.546432 318.865540,181.550278 318.859680,191.024551 
	C318.856720,195.849747 318.857361,200.674942 318.856384,206.000122 
z"/>
<path fill="#CCF696" opacity="1.000000" stroke="none" 
	d="
M450.832001,182.161194 
	C450.950043,199.489777 451.108215,216.806686 451.247986,234.123764 
	C451.281158,238.232468 451.252869,242.341690 451.252869,245.803055 
	C450.397858,246.536850 450.283142,246.722519 450.148102,246.738739 
	C440.187500,247.934875 440.195374,247.933823 440.199860,237.951508 
	C440.207123,221.788239 440.197388,205.624969 440.205505,189.461700 
	C440.209167,182.106094 440.220764,182.106064 447.464874,182.164932 
	C448.298004,182.171707 449.131134,182.179352 450.405151,182.202042 
	C450.846008,182.217484 450.865356,182.149582 450.832001,182.161194 
z"/>
<path fill="#5B8127" opacity="1.000000" stroke="none" 
	d="
M410.981873,201.787415 
	C411.653564,201.513367 412.797607,201.480270 412.831268,201.657806 
	C414.248901,209.132004 415.567352,216.625015 416.963043,224.481354 
	C413.487854,224.481354 410.427246,224.481354 406.894867,224.481354 
	C408.288208,216.774368 409.612274,209.450500 410.981873,201.787415 
z"/>
</svg>